<?xml version="1.0" encoding="UTF-8" standalone="no"?>
<svg
   width="139"
   height="139"
   viewBox="0 0 139 139"
   fill="none"
   version="1.1"
   id="svg22"
   sodipodi:docname="logo-vigie-eau.svg"
   inkscape:version="1.1 (c68e22c387, 2021-05-23)"
   xmlns:inkscape="http://www.inkscape.org/namespaces/inkscape"
   xmlns:sodipodi="http://sodipodi.sourceforge.net/DTD/sodipodi-0.dtd"
   xmlns="http://www.w3.org/2000/svg"
   xmlns:svg="http://www.w3.org/2000/svg">
  <sodipodi:namedview
     id="namedview24"
     pagecolor="#505050"
     bordercolor="#eeeeee"
     borderopacity="1"
     inkscape:pageshadow="0"
     inkscape:pageopacity="0"
     inkscape:pagecheckerboard="0"
     showgrid="false"
     inkscape:zoom="2.0806636"
     inkscape:cx="207.38576"
     inkscape:cy="70.169922"
     inkscape:window-width="1920"
     inkscape:window-height="1018"
     inkscape:window-x="-6"
     inkscape:window-y="-6"
     inkscape:window-maximized="1"
     inkscape:current-layer="svg22" />
  <g
     clip-path="url(#clip0_1117_195656)"
     id="g6"
     transform="translate(0,4)">
    <path
       d="m 70,1.57031 37.123,37.12309 c 20.503,20.5024 20.503,53.7437 0,74.2456 -20.5027,20.503 -53.7436,20.503 -74.2461,0 -20.5025,-20.5019 -20.5025,-53.7432 0,-74.2456 z M 70,18.0695 41.1265,46.943 c -15.9465,15.9465 -15.9465,41.8004 0,57.747 7.9793,7.979 18.4394,11.966 28.898,11.96 z"
       fill="#000091"
       id="path2" />
    <path
       d="M 66.727,15.102 36.5193,46.3097 c -15.0265,15.0265 -14.0265,44.3889 1,59.4153 15.0264,15.027 43.3892,15.027 58.4152,0 15.0265,-15.0264 16.0265,-44.3888 1,-59.4153 z m 0,-8.54731 34.982,34.98141 c 19.319,19.3195 19.319,50.643 0,69.9629 -19.3205,19.319 -50.6437,19.319 -69.9634,0 -19.3197,-19.3199 -19.3197,-50.6434 0,-69.9629 z m 0,97.44731 V 49.0335 c 15.1789,0 27.484,12.3048 27.484,27.4842 0,15.1788 -12.3051,27.4843 -27.484,27.4843 z"
       fill="#0063cb"
       id="path4" />
  </g>
  <defs
     id="defs20">
    <linearGradient
       id="paint0_linear_1117_195656"
       x1="415"
       y1="79"
       x2="150.998"
       y2="77.932899"
       gradientUnits="userSpaceOnUse">
      <stop
         stop-color="#FEECC2"
         id="stop12" />
      <stop
         offset="1"
         stop-color="#6A6AF4"
         id="stop14" />
    </linearGradient>
    <clipPath
       id="clip0_1117_195656">
      <rect
         width="140"
         height="140"
         fill="#ffffff"
         id="rect17"
         x="0"
         y="0" />
    </clipPath>
  </defs>
</svg>
