<?xml version="1.0" encoding="UTF-8" standalone="no"?>
<svg
   width="120"
   height="120"
   viewBox="0 0 120 120"
   fill="none"
   version="1.1"
   id="svg23"
   sodipodi:docname="ecogaz.svg"
   inkscape:version="1.1 (c68e22c387, 2021-05-23)"
   xmlns:inkscape="http://www.inkscape.org/namespaces/inkscape"
   xmlns:sodipodi="http://sodipodi.sourceforge.net/DTD/sodipodi-0.dtd"
   xmlns="http://www.w3.org/2000/svg"
   xmlns:svg="http://www.w3.org/2000/svg">
  <sodipodi:namedview
     id="namedview18"
     pagecolor="#505050"
     bordercolor="#eeeeee"
     borderopacity="1"
     inkscape:pageshadow="0"
     inkscape:pageopacity="0"
     inkscape:pagecheckerboard="0"
     showgrid="false"
     inkscape:zoom="6.45"
     inkscape:cx="59.922481"
     inkscape:cy="60"
     inkscape:window-width="1920"
     inkscape:window-height="1018"
     inkscape:window-x="-6"
     inkscape:window-y="-6"
     inkscape:window-maximized="1"
     inkscape:current-layer="svg23" />
  <g
     id="layer2"
     style="display:inline;fill:#cceee6;fill-opacity:1">
    <ellipse
       style="fill:#cceee6;fill-opacity:1;stroke:none;stroke-width:13.6896;stroke-linecap:round;stroke-linejoin:round;stroke-dashoffset:236.12;paint-order:stroke markers fill"
       id="path1522"
       cx="59.668655"
       cy="59.810051"
       rx="52.97044"
       ry="53.111835" />
  </g>
  <g
     id="layer1">
    <path
       d="m 45.469551,71.435602 c -1.0549,-1.8653 -2.5127,-3.3293 -4.3734,-4.3804 -0.3759,-0.2103 -0.7711,-0.3899 -1.1662,-0.5581 -1.5691,-0.6689 -3.2954,-1.0206 -5.1944,-1.0206 -0.092,0 -0.1764,0.0153 -0.2647,0.0153 -2.2979,0.0382 -4.3504,0.5543 -6.1381,1.5634 -1.860601,1.0549 -3.326101,2.5151 -4.396401,4.3804 -0.9974,1.7353 -1.5115,3.7306 -1.5806,5.9514 0.8786,0.2484 1.8069,0.3937 2.8121,0.3937 0.2992,0 0.5562,-0.0803 0.8439,-0.1032 0.0307,-1.6628 0.3875,-3.1573 1.116401,-4.4684 0.7596,-1.3607 1.7916,-2.4272 3.1036,-3.2031 1.266,-0.7454 2.7276,-1.1161 4.3619,-1.1391 0.0499,0 0.0959,-0.0191 0.1458,-0.0191 1.6995,0 3.1918,0.3861 4.4885,1.1582 0.2071,0.1223 0.3606,0.302 0.5524,0.4396 1.0166,0.73 1.8798,1.6168 2.5051,2.7635 0.7442,1.3646 1.1164,2.9203 1.1164,4.671 0,1.7506 -0.3722,3.2986 -1.1164,4.6518 -0.7442,1.3492 -1.7647,2.408 -3.0575,3.1763 -1.2967,0.7721 -2.789,1.1582 -4.4885,1.1582 -1.6995,0 -3.1995,-0.3822 -4.5077,-1.1582 -1.312,-0.7683 -2.344,-1.8271 -3.1036,-3.1763 -0.0038,-0.0077 -0.0038,-0.0153 -0.0077,-0.023 -0.633001,0.0688 -1.281301,0.1109 -1.948801,0.1109 -0.7174,0 -1.4118,-0.0421 -2.0908,-0.1185 0.2148,0.6192 0.4604,1.2193 0.7673,1.7888 1.0089,1.8653 2.4092,3.3293 4.196901,4.3766 1.7839,1.055 3.8363,1.5787 6.1611,1.5787 2.0831,0 3.9284,-0.4931 5.5358,-1.4869 1.5499,-0.9594 2.7622,-2.2896 3.6599,-3.9524 v 2.1062 c 0,1.957 -0.3798,3.6465 -1.1394,5.0722 -0.7596,1.4219 -1.7916,2.5113 -3.1036,3.2681 -1.3082,0.753 -2.7545,1.1315 -4.3312,1.1315 -1.7263,0 -3.2417,-0.3135 -4.5537,-0.9365 -1.3082,-0.6192 -2.3824,-1.4525 -3.2148,-2.4884 -0.295401,-0.4204 -0.698301,-0.6689 -1.204601,-0.7568 -0.5064,-0.0879 -0.9821,0.0153 -1.4272,0.3134 -0.4143,0.2638 -0.6521,0.6269 -0.7135,1.0894 -0.0576,0.4587 0.0729,0.8791 0.4028,1.2652 1.22,1.5404 2.7315,2.7445 4.530701,3.6045 1.7992,0.8562 3.8325,1.2881 6.0921,1.2881 2.4092,0 4.5383,-0.5581 6.3836,-1.6665 1.8453,-1.1123 3.3031,-2.626 4.3772,-4.5372 1.0704,-1.915 1.6074,-4.0555 1.6074,-6.4253 v -9.2539 c -0.0306,-2.4272 -0.5754,-4.5792 -1.6304,-6.4484 z"
       fill="#00a984"
       id="path12" />
    <path
       d="m 73.347851,71.477602 c -1.089,-1.8691 -2.559,-3.3407 -4.419,-4.4263 -1.861,-1.0817 -3.967,-1.6206 -6.315,-1.6206 -2.348,0 -4.419,0.5389 -6.295,1.6206 -1.876,1.0856 -3.357,2.5572 -4.443,4.4263 -1.0891,1.8691 -1.63,3.9905 -1.63,6.3604 0,2.3699 0.5217,4.4492 1.561,6.3145 1.044,1.8692 2.456,3.3446 4.243,4.4263 1.784,1.0817 3.81,1.6207 6.069,1.6207 2.26,0 4.113,-0.5084 5.824,-1.5328 1.312,-0.7836 2.344,-1.8462 3.238,-3.0579 v 2.5037 c 0,0.5657 0.188,1.0129 0.56,1.3531 0.372,0.344 0.84,0.5122 1.404,0.5122 0.564,0 0.982,-0.1682 1.339,-0.5122 0.357,-0.3402 0.537,-0.7912 0.537,-1.3531 v -10.2745 c -0.031,-2.3699 -0.587,-4.4913 -1.673,-6.3604 z m -3.169,10.9434 c -0.759,1.3608 -1.783,2.4387 -3.08,3.2261 -1.293,0.7874 -2.774,1.1773 -4.443,1.1773 -1.668,0 -3.115,-0.3899 -4.442,-1.1773 -1.324,-0.7874 -2.375,-1.8615 -3.146,-3.2261 -0.775,-1.3646 -1.162,-2.8935 -1.162,-4.583 0,-1.6895 0.387,-3.2528 1.162,-4.6021 0.771,-1.3455 1.822,-2.4234 3.146,-3.2222 1.324,-0.8027 2.804,-1.2041 4.442,-1.2041 1.639,0 3.15,0.4014 4.443,1.2041 1.297,0.7988 2.321,1.8767 3.08,3.2222 0.76,1.3493 1.14,2.8859 1.14,4.6021 0,1.7162 -0.38,3.2184 -1.14,4.583 z"
       fill="#00a984"
       id="path2" />
    <path
       d="m 100.20985,85.907002 c 0,-0.3173 -0.256999,-0.5734 -0.574999,-0.5734 -0.319,0 -0.576,0.2561 -0.576,0.5734 v 0.3249 c -5.068,0.0038 -10.131,0.0038 -15.199,0.0038 -0.246,0 -0.48,-0.0344 -0.698,-0.1414 -0.384,-0.1873 -0.541,-0.5237 -0.553,-0.9212 -0.008,-0.3402 0.154,-0.5848 0.464,-0.7759 2.34,-1.4564 4.673,-2.9318 7.009,-4.3996 2.705,-1.7009 5.409,-3.398 8.114,-5.1028 0.407,-0.2561 0.859,-0.4549 1.201,-0.7912 2.423999,-2.3852 1.848999,-5.8597 -0.449,-7.6562 -0.913,-0.7148 -1.98,-1.0053 -3.123,-1.0091 -2.685,-0.0115 -5.367,0 -8.052,0 -2.482,0 -4.961,0 -7.443,-0.0038 v -0.2867 c 0,-0.3173 -0.257,-0.5734 -0.575,-0.5734 -0.319,0 -0.576,0.2561 -0.576,0.5734 v 4.5066 c 0,0.3172 0.257,0.5733 0.576,0.5733 0.318,0 0.575,-0.2561 0.575,-0.5733 v -0.2409 c 5.122,0 10.247,0 15.369,0 0.23,0 0.452,0.0268 0.659,0.1185 0.373,0.1606 0.553,0.4587 0.587,0.8486 0.031,0.3287 -0.049,0.6154 -0.356,0.8065 -5.068,3.184 -10.132,6.3642 -15.196,9.5521 -0.399,0.2522 -0.852,0.4548 -1.182,0.7759 -1.173,1.1429 -1.757,2.5304 -1.561,4.1893 0.311,2.6107 2.371,4.4836 5.01,4.4951 5.137,0.0191 10.274,0.0076 15.407,0.0115 v 0.1987 c 0,0.3173 0.257,0.5734 0.575,0.5734 0.319,0 0.575999,-0.2561 0.575999,-0.5734 v -0.3134 c 0.004,-0.0268 0.019,-0.0421 0.019,-0.0803 -0.004,-1.1696 -0.012,-2.3393 0,-3.5089 0,-0.0688 -0.008,-0.1185 -0.019,-0.1567 v -0.4434 z"
       fill="#00a984"
       id="path4" />
  </g>
  <g
     clip-path="url(#clip0_2087_26655)"
     id="g16"
     transform="translate(16.96739,17.25018)">
    <path
       d="m 14.2404,11.0237 c 0.7558,0 1.3811,-0.2523 1.8837,-0.7569 l 5.2327,-5.20983 c 0.2877,-0.25227 0.4872,-0.53895 0.5985,-0.86003 0.1035,-0.3249 0.1572,-0.66509 0.1572,-1.02439 0,-0.7874 -0.2532,-1.44867 -0.7557,-1.98762 -0.5026,-0.535131 -1.1701,-0.806518 -1.9949,-0.806518 -0.7557,0 -1.4002,0.267565 -1.945,0.806518 l -5.2865,5.2672 c -0.4258,0.46633 -0.6445,1.07408 -0.6445,1.82708 0,0.75301 0.2571,1.44103 0.7788,1.96089 0.5218,0.5236 1.1778,0.7797 1.9719,0.7797 z"
       fill="#00a984"
       id="path6" />
    <path
       d="m 27.2954,31.5803 c 0.468,-0.4472 0.702,-1.013 0.702,-1.6933 0,-2.8286 -0.5332,-5.3284 -1.5921,-7.4957 -1.0588,-2.1672 -2.5971,-3.8682 -4.6112,-5.1066 -2.0141,-1.2346 -4.4233,-1.8539 -7.2276,-1.8539 -2.8044,0 -5.3632,0.6345 -7.5499,1.9074 -2.19437,1.2728 -3.91304,3.0311 -5.15217,5.2672 -1.239132,2.2399 -1.8606153,4.8276 -1.8606153,7.7632 0,2.9355 0.6560103,5.4736 1.9680353,7.7135 1.31202,2.2399 3.12659,3.9943 5.44757,5.2672 2.31713,1.2728 4.96798,1.9112 7.95268,1.9112 1.6573,0 3.3875,-0.3058 5.2097,-0.9174 1.8146,-0.6078 3.3299,-1.3952 4.5537,-2.366 0.6138,-0.4625 0.9016,-1.0206 0.867,-1.6666 -0.0345,-0.646 -0.3644,-1.2346 -0.9706,-1.7736 -0.468,-0.3937 -1.0166,-0.5848 -1.6457,-0.5657 -0.633,0.0192 -1.2161,0.2256 -1.7571,0.6193 -0.7212,0.5351 -1.6611,1.0129 -2.8312,1.4257 -1.1662,0.4128 -2.3056,0.6192 -3.4258,0.6192 -2.0486,0 -3.8632,-0.4472 -5.44757,-1.3454 C 8.34397,38.3955 7.10484,37.1762 6.2033,35.632 5.60867,34.6114 5.28642,33.457 5.0831,32.2454 h 20.4322 c 0.7213,0 1.312,-0.2217 1.7801,-0.669 z M 9.30305,21.3975 c 1.45775,-0.8944 3.21485,-1.3454 5.26345,-1.3454 1.7954,0 3.3261,0.4128 4.5844,1.2346 1.2583,0.8256 2.2289,1.9456 2.9156,3.3598 0.4834,0.9977 0.7442,2.1214 0.9015,3.3064 H 5.09844 C 5.28259,26.9323 5.5588,25.9614 5.98847,25.0784 6.74422,23.5189 7.84908,22.292 9.30305,21.3975 Z"
       fill="#00a984"
       id="path8" />
    <path
       d="m 46.2238,45.2605 c -2.8773,0 -5.4399,-0.6537 -7.688,-1.9609 -2.2481,-1.3072 -4.0089,-3.0808 -5.2864,-5.3207 -1.2775,-2.2399 -1.9144,-4.7741 -1.9144,-7.6027 0,-2.8285 0.6292,-5.4812 1.8875,-7.7402 1.2583,-2.2552 2.9847,-4.0211 5.179,-5.294 2.1944,-1.2728 4.711,-1.9073 7.5499,-1.9073 2.1215,0 4.0627,0.4013 5.8235,1.2116 1.7609,0.8066 3.3453,2.0144 4.7456,3.6275 0.5025,0.5733 0.6828,1.1619 0.5409,1.7735 -0.1458,0.6078 -0.5409,1.1506 -1.1854,1.6131 -0.5064,0.3593 -1.0627,0.4739 -1.6727,0.3516 -0.61,-0.1223 -1.1701,-0.4357 -1.6726,-0.9403 -1.7609,-1.8615 -3.9553,-2.7941 -6.5793,-2.7941 -1.8338,0 -3.4527,0.4204 -4.8568,1.2614 -1.4041,0.8409 -2.4974,2.0143 -3.2915,3.5203 -0.7941,1.506 -1.1855,3.2796 -1.1855,5.3208 0,1.9379 0.4067,3.6541 1.2162,5.1601 0.8094,1.506 1.9296,2.6948 3.3721,3.5701 1.4386,0.8791 3.1112,1.3187 5.014,1.3187 1.2584,0 2.3632,-0.1529 3.3185,-0.4587 0.9514,-0.3019 1.826,-0.7797 2.6163,-1.4219 0.5755,-0.4663 1.1663,-0.7262 1.7801,-0.7797 0.61,-0.0536 1.1509,0.1185 1.6189,0.5122 0.61,0.5007 0.9514,1.0626 1.0243,1.6894 0.0729,0.6269 -0.1458,1.1926 -0.6483,1.6933 -2.5895,2.4005 -5.8274,3.6007 -9.7098,3.6007 z"
       fill="#00a984"
       id="path10" />
    <path
       d="m 83.4437,31.4924 c -0.0498,0 -0.0959,0.0152 -0.1457,0.0191 -0.1305,1.4907 -0.4451,2.8782 -1.0857,4.0746 -0.8133,1.506 -1.9374,2.6871 -3.3721,3.5471 -1.2085,0.7225 -2.6087,1.0741 -4.1202,1.1888 -0.2878,0.0229 -0.5448,0.1032 -0.844,0.1032 -1.0051,0 -1.9335,-0.1453 -2.8121,-0.3937 -0.7595,-0.2141 -1.4808,-0.5007 -2.1483,-0.8983 -1.4386,-0.8562 -2.5742,-2.0411 -3.399,-3.5471 -0.8286,-1.506 -1.2391,-3.2414 -1.2391,-5.2137 0,-1.9723 0.4143,-3.7191 1.2391,-5.2404 0.8248,-1.5213 1.9604,-2.7139 3.399,-3.5739 1.4386,-0.8601 3.0921,-1.2882 4.9642,-1.2882 1.8721,0 3.5217,0.4281 4.9642,1.2882 1.4348,0.86 2.5588,2.0526 3.3721,3.5739 0.4834,0.9097 0.775,1.9264 0.9668,2.9967 0.092,0 0.1726,-0.0153 0.2647,-0.0153 1.899,0 3.6253,0.3517 5.1943,1.0206 C 88.4847,26.7068 87.89,24.5204 86.7967,22.6054 85.5192,20.3655 83.766,18.611 81.5333,17.3382 79.3044,16.0653 76.7532,15.4308 73.876,15.4308 c -2.8773,0 -5.486,0.6345 -7.7149,1.9074 -2.2289,1.2728 -3.9821,3.0311 -5.2596,5.2672 -1.2775,2.2399 -1.9143,4.8276 -1.9143,7.7632 0,2.9355 0.6368,5.4736 1.9143,7.7135 1.2775,2.2399 3.0307,3.9943 5.2596,5.2672 1.6803,0.9594 3.5563,1.5557 5.6279,1.7927 0.6752,0.0764 1.3734,0.1185 2.0908,0.1185 0.6675,0 1.3159,-0.0421 1.9488,-0.1109 2.1215,-0.2255 4.0474,-0.818 5.766,-1.8003 2.2289,-1.2729 3.9668,-3.0273 5.2328,-5.2672 0.8478,-1.5098 1.3849,-3.184 1.6611,-4.9958 -0.1918,-0.1376 -0.3453,-0.3173 -0.5524,-0.4396 -1.2967,-0.7683 -2.789,-1.1582 -4.4885,-1.1582 z"
       fill="#a0cbec"
       id="path14" />
    <path
       d="m 38.334412,100.27173 c -1.0549,-1.865297 -2.5127,-3.329297 -4.3734,-4.380397 -0.3759,-0.2103 -0.7711,-0.3899 -1.1662,-0.5581 -1.5691,-0.6689 -3.2954,-1.0206 -5.1944,-1.0206 -0.092,0 -0.1764,0.0153 -0.2647,0.0153 -2.2979,0.0382 -4.3504,0.5543 -6.1381,1.5634 -1.8606,1.0549 -3.3261,2.5151 -4.3964,4.380397 -0.9974,1.7353 -1.5115,3.7306 -1.5806,5.9514 0.8786,0.2484 1.8069,0.3937 2.8121,0.3937 0.2992,0 0.5562,-0.0803 0.8439,-0.1032 0.0307,-1.6628 0.3875,-3.1573 1.1164,-4.4684 0.7596,-1.3607 1.7916,-2.427197 3.1036,-3.203097 1.266,-0.7454 2.7276,-1.1161 4.3619,-1.1391 0.0499,0 0.0959,-0.0191 0.1458,-0.0191 1.6995,0 3.1918,0.3861 4.4885,1.1582 0.2071,0.1223 0.3606,0.302 0.5524,0.4396 1.0166,0.729997 1.8798,1.616797 2.5051,2.763497 0.7442,1.3646 1.1164,2.9203 1.1164,4.671 0,1.7506 -0.3722,3.2986 -1.1164,4.6518 -0.7442,1.3492 -1.7647,2.408 -3.0575,3.1763 -1.2967,0.7721 -2.789,1.1582 -4.4885,1.1582 -1.6995,0 -3.1995,-0.3822 -4.5077,-1.1582 -1.312,-0.7683 -2.344,-1.8271 -3.1036,-3.1763 -0.0038,-0.008 -0.0038,-0.0153 -0.0077,-0.023 -0.633,0.0688 -1.2813,0.1109 -1.9488,0.1109 -0.7174,0 -1.4118,-0.0421 -2.0908,-0.1185 0.2148,0.6192 0.4604,1.2193 0.7673,1.7888 1.0089,1.8653 2.4092,3.3293 4.1969,4.3766 1.7839,1.055 3.8363,1.5787 6.1611,1.5787 2.0831,0 3.9284,-0.4931 5.5358,-1.4869 1.5499,-0.9594 2.7622,-2.2896 3.6599,-3.9524 v 2.1062 c 0,1.957 -0.3798,3.6465 -1.1394,5.0722 -0.7596,1.4219 -1.7916,2.5113 -3.1036,3.2681 -1.3082,0.753 -2.7545,1.1315 -4.3312,1.1315 -1.7263,0 -3.2417,-0.3135 -4.5537,-0.9365 -1.3082,-0.6192 -2.3824,-1.4525 -3.2148,-2.4884 -0.2954,-0.4204 -0.6983,-0.6689 -1.2046,-0.7568 -0.5064,-0.0879 -0.9821,0.0153 -1.4272,0.3134 -0.4143,0.2638 -0.6521,0.6269 -0.7135,1.0894 -0.0576,0.4587 0.0729,0.8791 0.4028,1.2652 1.22,1.5404 2.7315,2.7445 4.5307,3.6045 1.7992,0.8562 3.8325,1.2881 6.0921,1.2881 2.4092,0 4.5383,-0.5581 6.3836,-1.6665 1.8453,-1.1123 3.3031,-2.626 4.3772,-4.5372 1.0704,-1.915 1.6074,-4.0555 1.6074,-6.4253 v -9.2539 c -0.0306,-2.4272 -0.5754,-4.5792 -1.6304,-6.4484 z"
       fill="#00a984"
       id="path12-5" />
  </g>
  <defs
     id="defs21">
    <clipPath
       id="clip0_2087_26655">
      <rect
         width="150"
         height="62.6866"
         fill="#ffffff"
         id="rect18"
         x="0"
         y="0" />
    </clipPath>
  </defs>
</svg>
